<?xml version="1.0" encoding="UTF-8"?>
<svg width="375px" height="831px" viewBox="0 0 375 831" version="1.1" xmlns="http://www.w3.org/2000/svg" xmlns:xlink="http://www.w3.org/1999/xlink">
    <!-- Generator: sketchtool 50.2 (55047) - http://www.bohemiancoding.com/sketch -->
    <title>AF5771D7-17D7-4E13-BE23-54B8D337E08B</title>
    <desc>Created with sketchtool.</desc>
    <defs>
        <linearGradient x1="20.8974749%" y1="8.20581424%" x2="84.6222469%" y2="77.8153813%" id="linearGradient-1">
            <stop stop-color="#6A54FF" offset="0%"></stop>
            <stop stop-color="#473DB5" offset="100%"></stop>
        </linearGradient>
        <linearGradient x1="102.117753%" y1="99.8781555%" x2="20.8974749%" y2="8.20581424%" id="linearGradient-2">
            <stop stop-color="#A59AFF" offset="0%"></stop>
            <stop stop-color="#D9D5FF" offset="100%"></stop>
        </linearGradient>
    </defs>
    <g id="Dev-ready" stroke="none" stroke-width="1" fill="none" fill-rule="evenodd" opacity="0.049999997">
        <g id="375-(mobile)---X-Core-calculator" transform="translate(0.000000, -3006.000000)">
            <g id="Group-2" transform="translate(-533.000000, 3006.000000)">
                <g transform="translate(220.000000, -169.000000)" id="Group">
                    <g>
                        <g id="Group-19">
                            <g id="Group-14" fill="url(#linearGradient-1)">
                                <path d="M143.169872,140.591614 C187.225364,89.4664356 276.031959,6.22535008 360.340258,0.229761004 C401.610922,-2.17689808 441.72146,14.4232866 469.273257,45.3128726 L710.828115,288.360624 L584.50479,416.080615 L500.083257,500.424473 L143.169872,140.591614 Z" id="logo-path"></path>
                                <path d="M-33.3574956,462.406902 C10.6979957,411.281724 99.5045914,328.040639 183.81289,322.045049 C225.083554,319.63839 265.194092,336.238575 292.745889,367.128161 L535.618095,611.371259 L407.977422,737.895903 L323.543453,822.607966 L-33.3574956,462.406902 Z" id="logo-path" transform="translate(251.130299, 572.211627) rotate(-90.000000) translate(-251.130299, -572.211627) "></path>
                                <path d="M288.139622,639.727597 C332.195113,588.602419 421.001709,505.361333 505.310007,499.365744 C546.580671,496.959085 586.69121,513.55927 614.243006,544.448856 L856.942594,788.644656 L729.474539,915.216598 L645.04057,999.928661 L288.139622,639.727597 Z" id="logo-path" transform="translate(572.541108, 749.532322) rotate(-180.000000) translate(-572.541108, -749.532322) "></path>
                                <path d="M463.666267,316.796128 C507.721758,265.67095 596.528354,182.429865 680.836652,176.434276 C722.107316,174.027617 762.217855,190.627801 789.769651,221.517387 L1032.67261,465.85495 L905.001185,592.28513 L820.567216,676.997192 L463.666267,316.796128 Z" id="logo-path" transform="translate(748.169439, 426.600853) rotate(-270.000000) translate(-748.169439, -426.600853) "></path>
                            </g>
                            <g id="Group-15" transform="translate(324.438704, 331.071352)" fill="url(#linearGradient-2)">
                                <g id="Group-14" transform="translate(0.328879, 1.153559)">
                                    <path d="M55.6545499,47.2378846 C70.4687367,30.0601511 100.331018,2.09167788 128.680694,0.0771982303 C142.558449,-0.731423857 156.046098,4.8461322 165.31072,15.2248359 L246.536435,96.8873287 L204.058704,139.80043 L175.670952,168.139428 L55.6545499,47.2378846 Z" id="logo-path"></path>
                                    <path d="M104.402365,214.944388 C119.216552,197.766655 149.078833,169.798181 177.428509,167.783702 C191.306264,166.97508 204.793913,172.552636 214.058535,182.931339 L295.669179,264.979569 L252.806519,307.506934 L224.414585,335.969646 L104.402365,214.944388 Z" id="logo-path" transform="translate(200.035772, 251.838075) rotate(-180.000000) translate(-200.035772, -251.838075) "></path>
                                    <path d="M163.459496,106.407466 C178.273682,89.2297326 208.135964,61.2612593 236.48564,59.2467796 C250.363395,58.4381576 263.851044,64.0157136 273.115666,74.3944173 L354.72631,156.442647 L311.863649,198.970011 L283.471716,227.432724 L163.459496,106.407466 Z" id="logo-path" transform="translate(259.092903, 143.301153) rotate(-270.000000) translate(-259.092903, -143.301153) "></path>
                                    <path d="M-3.6758701,155.394634 C11.1383167,138.216901 41.0005984,110.248427 69.3502738,108.233948 C83.228029,107.425326 96.7156783,113.002882 105.9803,123.381585 L187.590944,205.429815 L144.728284,247.95718 L116.33635,276.419892 L-3.6758701,155.394634 Z" id="logo-path" transform="translate(91.957537, 192.288321) rotate(-90.000000) translate(-91.957537, -192.288321) "></path>
                                </g>
                            </g>
                        </g>
                    </g>
                </g>
            </g>
        </g>
    </g>
</svg>