<svg xmlns="http://www.w3.org/2000/svg" width="27" height="27" viewBox="0 0 27 27">
  <g fill="none" fill-rule="evenodd" transform="translate(2 2)">
    <path fill="#000" fill-rule="nonzero" stroke="#000" stroke-width="2" d="M11.5,-1 C18.403141,-1 24,4.59685904 24,11.5 C24,18.403141 18.403141,24 11.5,24 C4.59685904,24 -1,18.403141 -1,11.5 C-1,4.59685904 4.59685904,-1 11.5,-1 Z"/>
    <path fill="#FFF" d="M10.4319281,6.75264216 L10.4297859,6.75553595 C10.2371797,6.57871405 9.98417974,6.46875 9.70314379,6.46875 C9.10803758,6.46875 8.625,6.95175 8.625,7.54689379 C8.625,7.86171569 8.7615719,8.142 8.97646405,8.33896569 L8.9743219,8.34185948 L12.42,11.5 L8.97428431,14.6589297 L8.97642647,14.6617859 C8.76153431,14.858 8.62496242,15.1383219 8.62496242,15.4531438 C8.62496242,16.0482876 9.10796242,16.5312876 9.70310621,16.5312876 C9.98414216,16.5312876 10.2371422,16.4213235 10.4297484,16.2452533 L10.4318905,16.2481095 L14.7443905,12.2949657 C14.9664984,12.0901078 15.0937124,11.8026078 15.0937124,11.5000376 C15.0937124,11.1974673 14.9664984,10.9099297 14.7443905,10.7051095 L10.4319281,6.75264216 Z"/>
  </g>
</svg>
