<svg xmlns="http://www.w3.org/2000/svg" width="23" height="23" viewBox="0 0 23 23">
  <g fill="none" fill-rule="evenodd">
    <path fill="#000" d="M11.5,0 C5.149125,0 0,5.149125 0,11.5 C0,17.8523125 5.149125,23 11.5,23 C17.8523125,23 23,17.8523125 23,11.5 C23,5.149125 17.8523125,0 11.5,0 Z"/>
    <path fill="#FFF" d="M16.1963125,14.6984375 C16.614625,15.119625 16.61175,15.8024375 16.1905625,16.22075 C15.982125,16.42775 15.7075625,16.53125 15.433,16.53125 C15.157,16.53125 14.8795625,16.424875 14.6696875,16.215 L11.4956875,13.0223125 L8.303,16.19775 C8.093125,16.40475 7.82,16.5096875 7.544,16.5096875 C7.2694375,16.5096875 6.992,16.4033125 6.782125,16.192 C6.3638125,15.77225 6.3666875,15.0894375 6.787875,14.671125 L9.9805625,11.497125 L6.805125,8.303 C6.385375,7.88325 6.38825,7.2004375 6.810875,6.782125 C7.2291875,6.362375 7.912,6.36525 8.3303125,6.787875 L11.5043125,9.9805625 L14.699875,6.8065625 C15.1181875,6.3868125 15.801,6.3896875 16.22075,6.8123125 C16.6390625,7.2320625 16.6361875,7.9134375 16.215,8.33175 L13.020875,11.50575 L16.1963125,14.6984375 Z"/>
  </g>
</svg>
