<svg xmlns="http://www.w3.org/2000/svg" width="29" height="30" viewBox="0 0 29 30">
  <path fill="#FFF" fill-rule="evenodd" d="M809.429766,1170.58621 L811.517139,1171.83493 C812.161213,1172.22024 812.160694,1172.84525 811.517139,1173.23024 L798.6662,1180.91804 C798.022125,1181.30334 796.977355,1181.30303 796.3338,1180.91804 L783.482861,1173.23024 C782.838787,1172.84494 782.839306,1172.21993 783.482861,1171.83493 L785.570234,1170.58621 L796.3338,1177.02528 C796.977355,1177.41027 798.022125,1177.41058 798.6662,1177.02528 L809.429766,1170.58621 L809.429766,1170.58621 L809.429766,1170.58621 L809.429766,1170.58621 Z M809.429766,1176.37931 L811.517139,1177.62804 C812.161213,1178.01334 812.160694,1178.63835 811.517139,1179.02334 L798.6662,1186.71114 C798.022125,1187.09644 796.977355,1187.09613 796.3338,1186.71114 L783.482861,1179.02334 C782.838787,1178.63804 782.839306,1178.01303 783.482861,1177.62804 L785.570234,1176.37931 L796.3338,1182.81838 C796.977355,1183.20337 798.022125,1183.20368 798.6662,1182.81838 L809.429766,1176.37931 L809.429766,1176.37931 L809.429766,1176.37931 L809.429766,1176.37931 Z M796.3338,1157.30545 C796.977875,1156.89802 798.022645,1156.89835 798.6662,1157.30545 L811.517139,1165.4347 C812.161213,1165.84213 812.160694,1166.50303 811.517139,1166.91013 L798.6662,1175.03938 C798.022125,1175.44681 796.977355,1175.44648 796.3338,1175.03938 L783.482861,1166.91013 C782.838787,1166.5027 782.839306,1165.8418 783.482861,1165.4347 L796.3338,1157.30545 L796.3338,1157.30545 L796.3338,1157.30545 L796.3338,1157.30545 Z" transform="translate(-783 -1157)"/>
</svg>
