<svg xmlns="http://www.w3.org/2000/svg" width="27" height="27" viewBox="0 0 27 27">
  <path fill="#FFF" fill-rule="evenodd" d="M804.580166,1468.14713 C803.955376,1468.85367 803.517286,1469.43422 803.526876,1469.61804 C803.557022,1470.19881 810.604474,1472.3109 810.954213,1471.96116 C811.303807,1471.61157 809.289256,1464.56888 808.611091,1464.53383 C808.400347,1464.52284 807.826697,1464.95357 807.136947,1465.56998 L802.12117,1460.5542 C801.890452,1460.32348 801.503191,1460.31578 801.269087,1460.54988 L799.549884,1462.26909 C799.310612,1462.50836 799.317714,1462.88468 799.554202,1463.12117 L804.580166,1468.14713 L804.580166,1468.14713 Z M807.125056,1451.40029 C807.841558,1452.03547 808.432314,1452.48281 808.618043,1452.47312 C809.198811,1452.44298 811.310903,1445.39553 810.961165,1445.04579 C810.611571,1444.69619 803.568877,1446.71074 803.533827,1447.38891 C803.522958,1447.59741 803.944449,1448.16113 804.550351,1448.84106 L799.554202,1453.83721 C799.323484,1454.06792 799.31578,1454.45519 799.549884,1454.68929 L801.269087,1456.40849 C801.508359,1456.64776 801.884681,1456.64066 802.12117,1456.40417 L807.125056,1451.40029 L807.125056,1451.40029 Z M790.419834,1448.85287 C791.044624,1448.14633 791.482714,1447.56578 791.473124,1447.38196 C791.442978,1446.80119 784.395526,1444.6891 784.045787,1445.03884 C783.696193,1445.38843 785.710744,1452.43112 786.388909,1452.46617 C786.599653,1452.47716 787.173303,1452.04643 787.863053,1451.43002 L792.837206,1456.40417 C793.067925,1456.63489 793.455186,1456.6426 793.68929,1456.40849 L795.408492,1454.68929 C795.647765,1454.45002 795.640663,1454.0737 795.404174,1453.83721 L790.419834,1448.85287 L790.419834,1448.85287 Z M787.830764,1465.56064 C787.134241,1464.94627 786.563855,1464.51739 786.381957,1464.52688 C785.801189,1464.55702 783.689097,1471.60447 784.038835,1471.95421 C784.388429,1472.30381 791.431123,1470.28926 791.466173,1469.61109 C791.477275,1469.39811 791.037249,1468.8145 790.410363,1468.11498 L795.404174,1463.12117 C795.634892,1462.89045 795.642596,1462.50319 795.408492,1462.26909 L793.68929,1460.54988 C793.450017,1460.31061 793.073695,1460.31771 792.837206,1460.5542 L787.830764,1465.56064 L787.830764,1465.56064 Z" transform="translate(-784 -1445)"/>
</svg>
