<svg xmlns="http://www.w3.org/2000/svg" width="34" height="34" viewBox="0 0 34 34">
  <path fill="#CCC" fill-rule="evenodd" d="M277.942375,191.728125 C278.56075,192.35075 278.5565,193.360125 277.933875,193.9785 C277.62575,194.2845 277.219875,194.4375 276.814,194.4375 C276.406,194.4375 275.995875,194.28025 275.685625,193.97 L270.993625,189.250375 L266.274,193.9445 C265.96375,194.2505 265.56,194.405625 265.152,194.405625 C264.746125,194.405625 264.336,194.248375 264.02575,193.936 C263.407375,193.3155 263.411625,192.306125 264.03425,191.68775 L268.753875,186.99575 L264.05975,182.274 C263.43925,181.6535 263.4435,180.644125 264.06825,180.02575 C264.686625,179.40525 265.696,179.4095 266.314375,180.03425 L271.006375,184.753875 L275.73025,180.061875 C276.348625,179.441375 277.358,179.445625 277.9785,180.070375 C278.596875,180.690875 278.592625,181.698125 277.97,182.3165 L273.24825,187.0085 L277.942375,191.728125 Z M271,170 C261.61175,170 254,177.61175 254,187 C254,196.390375 261.61175,204 271,204 C280.390375,204 288,196.390375 288,187 C288,177.61175 280.390375,170 271,170 Z" transform="translate(-254 -170)"/>
</svg>
