<svg xmlns="http://www.w3.org/2000/svg" width="28" height="28" viewBox="0 0 28 28">
  <path fill="#000000" fill-rule="evenodd" d="M676.99944,141 C669.26752,141 663,147.26808 663,155 C663,162.73248 669.26752,169 676.99944,169 C684.73192,169 691,162.73248 691,155 C691,147.26808 684.73192,141 676.99944,141 L676.99944,141 L676.99944,141 L676.99944,141 Z M675.347857,164.333333 C674.701027,164.333333 674.248663,163.818671 674.339109,163.172103 L675.740895,153.151231 C675.830608,152.509901 676.419509,151.99 677.074523,151.99 L677.695481,151.99 C678.34231,151.99 678.794674,152.504663 678.704228,153.151231 L677.302443,163.172103 C677.212729,163.813433 676.623829,164.333333 675.968814,164.333333 L675.347857,164.333333 L675.347857,164.333333 L675.347857,164.333333 L675.347857,164.333333 Z M679.39166,146.191667 C679.694995,146.495002 679.84666,146.887775 679.84666,147.37 C679.84666,147.930003 679.652218,148.400554 679.263327,148.781667 C678.874436,149.16278 678.392219,149.353333 677.81666,149.353333 C677.303324,149.353333 676.894995,149.201668 676.59166,148.898333 C676.288325,148.594998 676.13666,148.202225 676.13666,147.72 C676.13666,147.159997 676.331103,146.689446 676.719994,146.308333 C677.108884,145.92722 677.591102,145.736667 678.16666,145.736667 C678.679996,145.736667 679.088325,145.888332 679.39166,146.191667 L679.39166,146.191667 L679.39166,146.191667 L679.39166,146.191667 Z" transform="translate(-663 -141)"/>
</svg>
