<svg xmlns="http://www.w3.org/2000/svg" width="12" height="17" viewBox="0 0 12 17">
  <path fill="#8F8F94" fill-rule="evenodd" d="M995.539148,147.989336 L995.535545,147.993991 C995.211595,147.709519 994.786066,147.532609 994.313382,147.532609 C993.312454,147.532609 992.500017,148.309661 992.500017,149.267132 C992.500017,149.773619 992.729722,150.224541 993.091156,150.541421 L993.087553,150.546076 L998.882951,155.626908 L993.08749,160.70901 L993.091093,160.713605 C992.729659,161.029275 992.499954,161.480258 992.499954,161.986745 C992.499954,162.944216 993.312328,163.721268 994.313319,163.721268 C994.786003,163.721268 995.211532,163.544358 995.535482,163.261095 L995.539085,163.26569 L1002.79242,156.905853 C1003.16599,156.576277 1003.37995,156.113745 1003.37995,155.626969 C1003.37995,155.140192 1003.16599,154.6776 1002.79242,154.348085 L995.539148,147.989336 Z" transform="translate(-992 -147)"/>
</svg>
