<svg xmlns="http://www.w3.org/2000/svg" width="26" height="25" viewBox="0 0 26 25">
  <path fill-rule="evenodd" d="M721.526754,276.139881 C721.754525,276.424624 721.839866,276.766164 721.782895,277.164501 L720.701244,283.369427 C720.663341,283.692132 720.516435,283.957574 720.260236,284.166277 C720.004096,284.375212 719.714819,284.479447 719.392114,284.479447 L703.623833,284.479447 L703.310662,286.24412 L718.338892,286.24412 C718.6995,286.24412 719.012438,286.37219 719.278345,286.628388 C719.543787,286.884529 719.676624,287.202467 719.676624,287.58191 C719.676624,287.961354 719.543787,288.279292 719.278345,288.535432 C719.012438,288.791631 718.6995,288.919701 718.338892,288.919701 L701.716731,288.919701 C701.318393,288.919701 700.976853,288.758436 700.69211,288.43579 C700.426436,288.113318 700.322201,287.743117 700.37894,287.32577 L701.090622,283.454827 L700.00903,272.582109 L696.935169,271.614228 C696.574561,271.500458 696.313654,271.282222 696.152389,270.95975 C695.991182,270.637045 695.957754,270.295505 696.052688,269.935129 C696.166457,269.574521 696.389461,269.313613 696.7217,269.152348 C697.053706,268.991142 697.390479,268.957772 697.732019,269.052706 L701.659933,270.305097 C701.906598,270.380904 702.110476,270.523276 702.271741,270.731979 C702.43318,270.940681 702.532648,271.177986 702.570552,271.443487 L702.798323,273.606729 L720.615903,275.599172 C721.014415,275.65597 721.318051,275.836245 721.526754,276.139881 Z M703.737602,289.659753 C704.306913,289.659753 704.790824,289.858922 705.189104,290.257434 C705.587674,290.655771 705.787075,291.139683 705.787075,291.708994 C705.787075,292.278305 705.587674,292.766983 705.189104,293.174855 C704.790824,293.582959 704.306913,293.786836 703.737602,293.786836 C703.168523,293.786836 702.684554,293.582959 702.286042,293.174855 C701.887472,292.766983 701.688361,292.278305 701.688361,291.708994 C701.688361,291.139683 701.887472,290.655771 702.286042,290.257434 C702.684554,289.858922 703.168523,289.659753 703.737602,289.659753 Z M715.891081,289.659753 C716.460392,289.659753 716.944303,289.858922 717.342873,290.257434 C717.741153,290.655771 717.940554,291.139683 717.940554,291.708994 C717.940554,292.278305 717.741153,292.766983 717.342873,293.174855 C716.944303,293.582959 716.460392,293.786836 715.891081,293.786836 C715.322002,293.786836 714.838091,293.582959 714.439579,293.174855 C714.041009,292.766983 713.84184,292.278305 713.84184,291.708994 C713.84184,291.139683 714.041009,290.655771 714.439579,290.257434 C714.838091,289.858922 715.322002,289.659753 715.891081,289.659753 Z" transform="translate(-696 -269)"/>
</svg>
