<svg xmlns="http://www.w3.org/2000/svg" width="25" height="28" viewBox="0 0 25 28">
  <path fill="#000000" fill-rule="evenodd" d="M682.923067,333.45 C682.844247,332.049675 682.706888,330.978242 682.520409,330.794984 C681.931382,330.215827 673.1,335.406961 673.1,336.142688 C673.1,336.878111 681.832748,342.166835 682.520409,341.490392 C682.734196,341.280282 682.871994,340.223849 682.94271,338.85 L690.656213,338.85 C691.384853,338.85 692,338.239922 692,337.487352 L692,334.812648 C692,334.048527 691.398366,333.45 690.656213,333.45 L682.923067,333.45 L682.923067,333.45 L682.923067,333.45 L682.923067,333.45 Z M666.359241,324 L682.540759,324 C683.291447,324 683.9,324.616997 683.9,325.346074 L683.9,326.835439 C683.9,327.578855 683.29947,328.181513 682.55597,328.181513 L670.39403,328.181513 C669.651743,328.181513 669.05,328.790667 669.05,329.536924 L669.05,342.894589 C669.05,343.643162 669.65053,344.25 670.39403,344.25 L682.55597,344.25 C683.298257,344.25 683.9,344.847591 683.9,345.598591 L683.9,346.951409 C683.9,347.696215 683.292569,348.3 682.540759,348.3 L666.359241,348.3 C665.608553,348.3 665,347.699748 665,346.948823 L665,325.351177 C665,324.604942 665.607431,324 666.359241,324 L666.359241,324 L666.359241,324 Z" transform="rotate(-90 184.5 508.15)"/>
</svg>
