<svg xmlns="http://www.w3.org/2000/svg" width="24" height="27" viewBox="0 0 24 27">
  <path fill="#000000" fill-rule="evenodd" d="M689,242.916736 C688.998203,241.498554 688.996406,240.178303 688.998203,238.756494 C689,237.334685 688.998203,235.813132 688.998203,233.986905 C687.420237,234.97528 685.996832,235.192904 684.672276,235.171142 C683.342327,235.151193 682.11482,234.866468 680.914272,234.525524 C679.713724,234.188207 678.543729,233.78923 677.346775,233.451914 C676.14443,233.11097 674.915126,232.822618 673.588772,232.802669 C672.262418,232.779093 670.840811,232.998531 669.262845,233.988719 C669.261047,235.814945 669.264642,237.336498 669.262845,238.756494 C669.262845,240.178303 669.261047,241.49674 669.262845,242.916736 C669.264642,244.338545 669.262845,245.861911 669.264642,247.688138 C670.840811,246.701576 672.26062,246.482139 673.588772,246.503901 C674.913329,246.525664 676.14443,246.810388 677.344978,247.145892 C678.547323,247.485022 679.715521,247.885813 680.914272,248.22857 C682.111226,248.567701 683.347719,248.850611 684.674073,248.874187 C685.99863,248.894136 687.420237,248.674699 688.994608,247.689951 C689,245.860098 688.996406,244.340358 689,242.916736 L689,242.916736 L689,242.916736 L689,242.916736 Z M665.001797,257.158295 L665,233.198335 C665,232.535964 665.567924,232.001685 666.277829,232 C666.982342,232.001685 667.552063,232.53765 667.553861,233.20002 L667.553861,257.15998 C667.555658,257.81898 666.984139,258.35663 666.277829,258.360001 C665.569721,258.35663 665.003594,257.820666 665.001797,257.158295 L665.001797,257.158295 L665.001797,257.158295 L665.001797,257.158295 Z" transform="translate(-665 -232)"/>
</svg>
