<svg xmlns="http://www.w3.org/2000/svg" width="22" height="26" viewBox="0 0 22 26">
  <path fill="#FFF" d="M667.710194,569.627794 C667.910935,570.205426 667.636906,570.853896 667.088798,571.035682 C666.773609,571.140164 666.422023,571.175938 666.088943,571.166127 C665.477862,571.148024 665.282821,571.373139 665.482797,571.961623 C665.551767,572.164706 665.647807,572.358256 665.736197,572.55396 C665.911275,572.941542 665.923021,573.326613 665.732051,573.712546 C665.668584,573.84076 665.607313,573.970342 665.549398,574.101396 C665.308657,574.646195 665.403957,574.873921 665.971731,575.021733 C666.427032,575.140287 666.895238,575.206536 667.350761,575.324253 C668.349037,575.582227 669.34334,575.85668 670.338531,576.127355 C670.835213,576.262364 671.329897,576.377799 671.84563,576.22304 C672.512134,576.023025 672.878304,575.525637 672.739328,574.834167 C672.631764,574.2989 672.478106,573.740613 672.205483,573.279633 C671.540977,572.155908 670.799532,571.079797 670.079036,569.991517 C669.93922,569.780346 669.762712,569.592121 669.587856,569.408713 C669.007694,568.800123 668.777736,568.741962 668.008036,569.001558 C667.820769,568.612963 667.879769,568.20558 667.944865,567.808009 C667.979017,567.599324 668.050751,567.382169 668.159992,567.20406 C668.624201,566.447913 668.894529,565.609087 669.183339,564.776752 C669.517578,563.813338 669.945093,562.914018 670.592548,562.111296 C671.125726,561.450225 671.545691,560.691948 672.006568,559.970434 C672.171356,559.712511 672.17444,559.424443 672.160301,559.11381 C672.086864,557.500759 671.9984,555.886264 671.999979,554.272351 C672.001978,552.281024 673.623106,550.732195 675.860399,551.038847 C678.326415,551.376837 679.798869,553.258383 679.725407,555.824249 C679.6593,558.136274 680.401042,560.151662 681.939529,561.901165 C683.472711,563.64466 684.189851,565.783292 684.319179,568.122445 C684.335193,568.412998 684.277575,568.722009 684.186865,568.999251 C684.130973,569.170236 683.948715,569.298221 683.82146,569.443853 C683.649121,569.64113 683.463729,569.827758 683.304271,570.035303 C683.006257,570.423062 682.677027,570.752228 682.183379,570.861147 C681.439071,571.025312 680.945202,570.787597 680.608791,570.088672 C680.564448,569.996486 680.525928,569.900244 680.471715,569.814549 C680.347667,569.618286 680.223299,569.333488 679.967481,569.419843 C679.801484,569.475773 679.617943,569.720841 679.587171,569.906557 C679.519608,570.314218 679.446542,570.76559 679.549367,571.150078 C679.844865,572.255599 679.776981,573.347936 679.624926,574.455459 C679.538238,575.086715 679.61471,575.698727 680.195687,576.065518 C680.80013,576.446938 681.390187,576.251817 681.943206,575.888651 C682.035544,575.827954 682.122108,575.755569 682.203194,575.679432 C682.94844,574.980103 683.814945,574.510933 684.774084,574.196548 C685.14213,574.07589 685.504821,573.907389 685.834421,573.700782 C686.316791,573.398263 686.298827,573.044959 685.813347,572.736431 C685.635999,572.623734 685.444586,572.520925 685.24619,572.459239 C684.668816,572.280065 684.387162,571.851689 684.264891,571.283463 C684.17539,570.867714 684.150245,570.45232 684.383633,569.971893 C684.425311,570.240059 684.452011,570.4276 684.483868,570.614203 C684.61322,571.373418 684.997256,571.934292 685.676246,572.288558 C685.8951,572.40265 686.099715,572.566764 686.273188,572.746319 C686.52913,573.011188 686.529994,573.317815 686.295372,573.606086 C686.174804,573.754076 686.031756,573.892887 685.874594,573.997217 C685.581095,574.19206 685.283303,574.39101 684.963548,574.531064 C683.841743,575.022291 682.886108,575.757015 681.984119,576.583797 C681.497825,577.029565 680.893381,576.98578 680.301498,576.92341 C679.77091,576.867555 679.354845,576.614932 679.096288,576.117493 C678.948033,575.832239 678.707514,575.659783 678.396717,575.654484 C677.335863,575.636179 676.274687,575.634582 675.21366,575.631311 C674.993548,575.630652 674.773387,575.655701 674.553103,575.6592 C673.934915,575.669114 673.370471,575.847755 672.862808,576.212113 C672.715071,576.318243 672.565015,576.421027 672.419771,576.530605 C671.941324,576.891464 671.417177,576.983751 670.854782,576.796743 C670.217469,576.584964 669.59442,576.320221 668.947657,576.147917 C667.990417,575.892936 667.016571,575.704406 666.051954,575.477896 C664.977132,575.225399 664.777724,574.847731 665.219551,573.822353 C665.43189,573.329605 665.436998,572.85255 665.307152,572.349863 C665.243166,572.102082 665.180662,571.850295 665.155048,571.596353 C665.110927,571.158799 665.25854,570.963576 665.681663,570.891217 C665.986833,570.839014 666.30027,570.837163 666.60512,570.783337 C667.19614,570.678804 667.594957,570.26417 667.710194,569.627794 Z M680.330048,562.527527 C680.552924,562.922588 680.795738,563.307406 680.994727,563.714814 C681.494444,564.737961 681.844995,565.804462 681.741182,566.973697 C681.719689,567.216407 681.66777,567.463834 681.584389,567.691535 C681.458837,568.034519 681.128027,568.192548 680.747348,568.135224 C680.409086,568.084339 680.363238,567.812142 680.338142,567.540376 C680.312602,567.264351 680.302732,566.986044 680.300585,566.708548 C680.292837,565.719325 680.105273,564.764202 679.746456,563.851191 C679.617795,563.523749 679.396079,563.235097 679.219052,562.927354 C679.150156,562.807685 679.058138,562.691794 679.026429,562.561374 C678.808785,561.666137 678.506946,560.81537 677.949338,560.072558 C677.674099,559.706096 677.588128,559.275642 677.70645,558.815727 C677.747314,558.656785 677.790472,558.498121 677.822305,558.337176 C677.899467,557.946578 677.786672,557.763677 677.42825,557.62702 C677.045547,557.481186 676.677502,557.290501 676.288728,557.167156 C675.968851,557.065716 675.899732,556.847091 675.91323,556.559986 C675.92088,556.396912 675.935316,556.22902 675.981509,556.074236 C676.062201,555.803662 676.217414,555.599108 676.523794,555.573831 C676.844165,555.547361 677.09068,555.680772 677.231877,555.982963 C677.371569,556.282136 677.403155,556.587799 677.275603,556.907332 C677.161155,557.194183 677.27168,557.34164 677.559873,557.259773 C677.682415,557.224962 677.848017,557.072232 677.861342,556.956873 C677.927006,556.39103 677.905636,555.826683 677.617764,555.310761 C677.341859,554.816289 676.841722,554.60598 676.310591,554.76084 C675.64579,554.954694 675.326554,555.486056 675.392242,556.289818 C675.405888,556.456772 675.419805,556.623751 675.430218,556.749733 C675.04865,556.721439 674.697088,556.695375 674.340863,556.669007 C674.322849,556.451904 674.322578,556.254576 674.2866,556.064424 C674.241122,555.824046 674.1894,555.579713 674.098937,555.354699 C673.983107,555.066758 673.785451,554.843747 673.448028,554.845598 C673.119736,554.847474 672.952481,555.080195 672.826386,555.349983 C672.545447,555.951169 672.601289,556.549313 672.869297,557.135261 C672.911,557.226483 673.019798,557.353886 673.086942,557.347446 C673.178614,557.338648 673.26007,557.217508 673.359071,557.133385 C672.93163,556.882662 672.737921,556.349653 672.942734,555.948 C673.017157,555.802014 673.210717,555.68455 673.373926,555.63113 C673.573211,555.565844 673.765809,555.683105 673.830806,555.887506 C673.910115,556.13691 673.945797,556.402768 673.980121,556.664367 C673.988437,556.727599 673.932965,556.820571 673.879936,556.867983 C673.565808,557.148597 673.242624,557.418487 672.925312,557.695399 C672.857354,557.754701 672.788779,557.820063 672.741351,557.896226 C672.606792,558.112315 672.581375,558.30229 672.837663,558.469522 C672.994381,558.571824 673.126448,558.723363 673.247682,558.871631 C673.434777,559.100271 673.668338,559.232769 673.951472,559.225873 C675.091858,559.198237 676.199795,559.051465 677.116195,558.246968 C677.164388,558.204678 677.304746,558.200571 677.344746,558.240097 C677.391532,558.286317 677.40851,558.417142 677.377664,558.479715 C677.342673,558.550629 677.24651,558.601564 677.166559,558.635361 C676.602807,558.87371 676.034835,559.101437 675.471329,559.340395 C674.911919,559.577579 674.339308,559.675038 673.738665,559.554127 C673.667992,559.539878 673.592285,559.5522 673.477689,559.5522 C673.734223,559.92249 674.017925,560.176407 674.435595,560.149811 C674.750438,560.129781 675.08026,560.092917 675.36949,559.975403 C675.804236,559.798764 676.207173,559.54074 676.628174,559.326654 C676.769741,559.254725 676.921895,559.196564 677.075628,559.162514 C677.129545,559.150496 677.223068,559.215909 677.258898,559.272397 C677.278737,559.303759 677.231754,559.406999 677.1882,559.447413 C677.115332,559.515031 677.020501,559.557423 676.935837,559.611908 C676.411122,559.949745 675.88658,560.287785 675.362211,560.626104 C675.159002,560.757183 674.964973,560.906795 674.751598,561.016754 C674.342689,561.227595 674.056815,561.186116 673.750756,560.838872 C673.503352,560.558157 673.301032,560.235658 673.07522,559.934533 C673.001685,559.836414 672.917046,559.747093 672.837465,559.653766 C672.79939,560.324472 672.468457,560.836819 672.189172,561.369322 C671.886617,561.946244 671.669935,562.534677 671.976142,563.142835 C671.875587,563.263316 671.785593,563.34896 671.721188,563.451643 C670.996867,564.605868 670.420258,565.813082 670.431461,567.234053 C670.434151,567.582666 670.418728,567.932547 670.388253,568.279638 C670.379814,568.375805 670.296803,568.530386 670.230967,568.540451 C670.13552,568.554979 669.968733,568.491113 669.929868,568.410869 C669.75864,568.057489 669.561058,567.698279 669.490385,567.318101 C669.415591,566.915865 669.473581,566.48754 669.473581,566.026129 C669.410459,566.164078 669.327818,566.27386 669.312223,566.392895 C669.272445,566.696505 669.217442,567.009547 669.250804,567.309176 C669.30862,567.828571 669.388448,568.371292 669.779319,568.752357 C670.316273,569.275707 670.883579,569.767036 671.449626,570.25773 C671.947123,570.688996 672.471863,571.087404 672.964449,571.524247 C673.514876,572.012482 673.335308,572.832217 672.64351,573.063493 C672.590604,573.081164 672.538636,573.101853 672.443213,573.137018 C672.95939,573.860282 673.443291,574.569703 673.39268,575.504315 C673.982095,574.809472 673.449114,574.294641 673.139971,573.737748 C673.312013,573.561033 673.448522,573.515904 673.679417,573.688993 C673.937802,573.88267 674.249734,574.084485 674.554435,574.115492 C676.107975,574.27342 677.593482,574.170763 678.590475,572.660725 C678.653893,572.564685 678.792252,572.520798 678.89572,572.452698 C678.944603,572.569401 679.042025,572.689856 679.033808,572.802071 C679.002567,573.228951 678.952228,573.655805 678.879211,574.077157 C678.830402,574.358507 678.717039,574.627585 678.659001,574.907895 C678.613374,575.128371 678.686367,575.293753 678.970094,575.293372 C679.004319,575.121956 679.034326,574.951757 679.072599,574.783561 C679.334216,573.633975 679.491082,572.485962 679.237707,571.303011 C679.153808,570.911196 679.184629,570.482034 679.224727,570.076477 C679.280397,569.514285 679.540213,569.260292 680.055057,569.134792 C680.123287,569.11821 680.215181,569.045902 680.230455,568.982619 C680.344484,568.511117 680.680006,568.322765 681.099946,568.249569 C681.592976,568.163721 682.067031,568.247895 682.567958,568.515402 C682.51594,568.421593 682.505651,568.377884 682.478827,568.358691 C682.267278,568.20738 682.052546,568.060709 681.854347,567.923521 C682.261628,565.846524 681.814988,564.033788 680.330048,562.527527 Z M673.639688,556.609654 C673.684846,556.594848 673.729929,556.580016 673.775062,556.565159 C673.71658,556.369099 673.663649,556.170782 673.592779,555.979565 C673.583525,555.954643 673.481588,555.966052 673.444672,555.962629 C673.518553,556.207799 673.579133,556.408727 673.639688,556.609654 Z M677.044906,556.396531 C677.17569,556.089321 677.009545,555.849095 676.697317,555.869378 C676.811642,556.042747 676.926435,556.216901 677.044906,556.396531 Z" transform="translate(-665 -551)"/>
</svg>
