<svg xmlns="http://www.w3.org/2000/svg" width="18" height="21" viewBox="0 0 18 21">
  <path fill="#FFF" d="M16.8688842,15.9409693 C16.5595372,16.6556241 16.1933713,17.3134601 15.7691239,17.9182652 C15.1908343,18.7427698 14.7173439,19.3134835 14.3524406,19.6304064 C13.7867774,20.1506145 13.1807097,20.4170318 12.5317123,20.4321835 C12.0657977,20.4321835 11.5039225,20.2996062 10.8498744,20.0306636 C10.1936799,19.7629837 9.5906425,19.6304064 9.03924716,19.6304064 C8.46095757,19.6304064 7.84074829,19.7629837 7.17735669,20.0306636 C6.51295498,20.2996062 5.97772144,20.4397593 5.56849949,20.4536484 C4.94614372,20.4801638 4.32580818,20.2061707 3.70660902,19.6304064 C3.31140237,19.2857054 2.81707841,18.6947894 2.22489977,17.8576584 C1.5895388,16.9637085 1.0671842,15.9270803 0.657962243,14.7452483 C0.21969954,13.4687182 0,12.2325926 0,11.0358614 C0,9.66501205 0.296215586,8.48267499 0.889530608,7.49188057 C1.35582394,6.69603793 1.97615948,6.06825281 2.75255745,5.60738883 C3.52895542,5.14652485 4.36785413,4.91167362 5.27127379,4.89664819 C5.76559775,4.89664819 6.41383766,5.04955402 7.21940264,5.35006259 C8.02269486,5.65158127 8.53848372,5.80448709 8.76462273,5.80448709 C8.93369037,5.80448709 9.50667687,5.62569712 10.4780266,5.26925356 C11.396598,4.93869414 12.1718596,4.80182385 12.806968,4.85573862 C14.5279477,4.99462914 15.8208921,5.67304616 16.6807507,6.89528268 C15.1415913,7.82786935 14.3802187,9.1340715 14.3953704,10.8097224 C14.4092595,12.1149145 14.8827499,13.2010383 15.8133163,14.0634221 C16.2350384,14.4636793 16.7060035,14.7730264 17.2299995,14.9927259 C17.1163618,15.3222752 16.996411,15.6379355 16.8688842,15.9409693 Z M12.9218683,0.409221959 C12.9218683,1.43222635 12.5481266,2.38740167 11.8031684,3.27150292 C10.904168,4.32252531 9.81678151,4.92985565 8.63760105,4.8340212 C8.62257562,4.71129249 8.61386339,4.58212431 8.61386339,4.4463904 C8.61386339,3.4643082 9.04139365,2.41328581 9.8006197,1.55393232 C10.1796645,1.11882622 10.6617409,0.757041684 11.2463437,0.468439823 C11.8296838,0.184143568 12.381458,0.0269195068 12.9004034,0 C12.9155551,0.13675665 12.9218683,0.273525927 12.9218683,0.409209333 L12.9218683,0.409221959 Z"/>
</svg>
