<svg xmlns="http://www.w3.org/2000/svg" width="162" height="32" viewBox="0 0 162 32">
  <g>
    <polygon points=".236 21.141 2.273 20.821 2.273 2.297 0 2.007 .118 0 14.35 0 13.995 5.612 11.161 5.525 10.984 2.007 6.584 2.007 6.584 10.352 8.503 10.352 8.946 8.433 10.925 8.491 10.925 14.249 8.946 14.249 8.474 12.272 6.555 12.272 6.555 21.112 10.984 21.112 11.397 17.274 14.379 17.361 14.615 23.206 .148 23.206"/>
    <path d="M15.9440016 23.2349596L16.0325794 21.5192367 17.6269795 21.1993561 17.6269795 9.5091762 15.766846 9.3346959 15.766846 7.58989293 20.4319428 6.92105179 20.7862539 7.90977348 20.7862539 8.57861462C21.9082392 7.41541263 23.266432 6.71749145 25.0084618 6.71749145 27.5476916 6.71749145 29.4373511 8.22965402 29.4373511 11.2248991L29.4373511 21.1702761 31.120329 21.4901566 31.0317513 23.2058795 25.4808766 23.2058795 25.4808766 12.0973006C25.4808766 10.4978979 24.890358 9.59641635 23.4140616 9.59641635 22.9121208 9.59641635 22.5578097 9.6836565 22.1739726 9.82905675 21.9377652 10.0326171 21.7015577 10.3234176 21.4948762 10.585138L21.4948762 21.2284362 23.1778542 21.5483167 23.0597505 23.2640396 15.9440016 23.2640396 15.9440016 23.2349596zM105.141833 23.2349596L105.200885 21.5192367 106.795285 21.1993561 106.795285 9.5091762 104.935151 9.3346959 104.935151 7.58989293 109.600248 6.92105179 109.954559 7.90977348 109.954559 8.57861462C111.076544 7.41541263 112.434737 6.71749145 114.176767 6.71749145 116.715997 6.71749145 118.605656 8.22965402 118.605656 11.2248991L118.605656 21.1702761 120.288634 21.4901566 120.200056 23.2058795 114.678708 23.2058795 114.678708 12.0973006C114.678708 10.4978979 114.088189 9.59641635 112.611893 9.59641635 112.109952 9.59641635 111.755641 9.6836565 111.371804 9.82905675 111.135596 10.0326171 110.899389 10.3234176 110.692707 10.585138L110.692707 21.2284362 112.375685 21.5483167 112.257582 23.2640396 105.141833 23.2640396 105.141833 23.2349596zM39.9190558 22.915079C39.2694854 23.1767995 38.1179742 23.4676 36.6121518 23.4676 34.6339146 23.4676 32.803307 22.5951985 32.803307 19.7453536L32.803307 9.5091762 30.9136475 9.21837571 31.0022253 7.18277224 33.1280922 7.09553209 34.043396 3.98396679 36.7597815 3.86764659 36.7597815 7.21185229 39.6828484 7.21185229 39.4761669 9.24745576 36.7893074 9.53825625 36.7893074 19.7744337C36.7893074 20.6177551 37.2617222 21.1702761 38.1475001 21.1702761L39.7419003 21.1702761 39.9190558 22.915079zM150.434608 23.2349596L150.493659 21.5483167 151.999482 21.1993561 151.999482 9.5091762 150.227926 9.3346959 150.227926 7.58989293 155.070178 6.92105179 155.394964 8.05517372 155.394964 8.43321437C156.664579 7.50265278 158.377083 6.89197174 160.443898 6.89197174L161.15252 7.50265278 160.650579 11.9228203 157.993245 11.8355802 157.727512 9.48009615C157.107468 9.5673363 156.516949 9.7418166 156.015008 10.0907772L156.015008 21.2284362 157.697986 21.5773968 157.579882 23.2640396 150.434608 23.2640396 150.434608 23.2349596zM80.9010451 23.2349596L80.9896229 21.5483167 82.4954453 21.1993561 82.4954453 9.5091762 80.7238896 9.3346959 80.7238896 7.58989293 85.5661419 6.92105179 85.8909271 8.05517372 85.8909271 8.43321437C87.1605421 7.50265278 88.8730459 6.89197174 90.9398609 6.89197174L91.6484832 7.50265278 91.0874906 11.9228203 88.430157 11.8355802 88.1644236 9.48009615C87.5443791 9.5673363 86.9538606 9.7418166 86.4519198 10.0907772L86.4519198 21.2284362 88.1348977 21.5773968 88.016794 23.2640396 80.9010451 23.2640396 80.9010451 23.2349596zM41.100093 23.2349596L41.1886708 21.5483167 42.6944932 21.1993561 42.6944932 9.5091762 40.9229374 9.3346959 40.9229374 7.58989293 45.7651898 6.92105179 46.089975 8.05517372 46.089975 8.43321437C47.3595899 7.50265278 49.0720938 6.89197174 51.1093829 6.89197174L51.8180052 7.50265278 51.3160644 11.9228203 48.6587308 11.8355802 48.3929974 9.48009615C47.7729529 9.5673363 47.1824343 9.7418166 46.6804936 10.0907772L46.6804936 21.2284362 48.3634715 21.5773968 48.2453678 23.2640396 41.100093 23.2640396 41.100093 23.2349596zM56.3945242 16.1103474C56.3945242 18.9020322 57.6346132 21.0539559 60.0852653 21.0539559 61.3548802 21.0539559 62.3587618 20.7922354 63.5397989 20.2397145L64.2188953 21.7809571C63.0083322 22.7405987 61.2367765 23.4676 59.0223318 23.4676 54.7115462 23.4676 52.2313682 19.8035137 52.2313682 15.0925457 52.2313682 11.0794989 54.0324498 6.6884114 58.96328 6.6884114 63.2740656 6.6884114 64.8979917 10.6142181 64.8979917 14.9762255L64.4846287 16.0231073 56.3945242 16.1103474zM56.3354723 14.2492243L61.2958284 14.0165839C61.2072506 12.0682206 60.7938876 8.98573531 58.8451763 8.98573531 58.3727614 8.98573531 58.0479762 9.07297546 57.4574576 9.36377595 56.6602575 10.7014582 56.3354723 13.1151023 56.3354723 14.2492243zM125.012783 16.1103474C125.012783 18.9020322 126.252872 21.0539559 128.703524 21.0539559 129.973139 21.0539559 130.977021 20.7922354 132.158058 20.2397145L132.837154 21.7809571C131.626591 22.7405987 129.855035 23.4676 127.640591 23.4676 123.329805 23.4676 120.849627 19.8035137 120.849627 15.0925457 120.849627 11.0794989 122.650709 6.6884114 127.581539 6.6884114 131.892324 6.6884114 133.51625 10.6142181 133.51625 14.9762255L133.102887 16.0231073 125.012783 16.1103474zM124.953731 14.2492243L129.914087 14.0165839C129.825509 12.0682206 129.412146 8.98573531 127.463435 8.98573531 126.99102 8.98573531 126.666235 9.07297546 126.075716 9.36377595 125.278516 10.7014582 124.953731 13.1151023 124.953731 14.2492243zM96.1954763 16.1103474C96.1954763 18.9020322 97.4355653 21.0539559 99.8862174 21.0539559 101.155832 21.0539559 102.159714 20.7922354 103.340751 20.2397145L104.019847 21.7809571C102.809284 22.7405987 101.037729 23.4676 98.823284 23.4676 94.5124983 23.4676 92.0323203 19.8035137 92.0323203 15.0925457 92.0323203 11.0794989 93.833402 6.6884114 98.7642321 6.6884114 103.075018 6.6884114 104.698944 10.6142181 104.698944 14.9762255L104.285581 16.0231073 96.1954763 16.1103474zM96.1364244 14.2492243L101.09678 14.0165839C101.008203 12.0682206 100.59484 8.98573531 98.6461284 8.98573531 98.1737135 8.98573531 97.8489283 9.07297546 97.2584097 9.36377595 96.4612096 10.7014582 96.1068985 13.1151023 96.1364244 14.2492243zM144.677052 23.2349596L144.263689 21.8391172C143.171229 22.8569189 142.108296 23.4676 140.454844 23.4676 137.915614 23.4676 135.642117 22.2171579 135.642117 18.756632L135.642117 9.10205551 133.781984 8.92757521 133.781984 7.38633258 139.155703 6.77565154 139.569066 8.17149392 139.569066 18.2913512C139.569066 20.0652342 140.307214 20.9957958 141.753985 20.9957958 142.167348 20.9957958 142.698814 20.9376357 143.171229 20.7631554 143.436962 20.5014349 143.702696 20.1815544 143.909377 19.8616738L143.909377 9.10205551 141.990192 8.92757521 141.990192 7.38633258 147.422963 6.77565154 147.836326 8.17149392 147.836326 21.1993561 149.519304 21.5192367 149.312622 23.2349596 144.677052 23.2349596zM72.9585703 21.141196C72.1023183 21.141196 71.423222 20.9957958 70.8917552 20.7049953L70.8917552 10.4397378C71.1279627 10.0907772 71.393696 9.77089665 71.6594294 9.48009615 72.1613702 9.30561585 72.6042591 9.24745576 73.1357258 9.24745576 75.3501705 9.24745576 75.7340076 11.4575395 75.7340076 15.4124263 75.7340076 19.2219128 75.143489 20.2687945 74.9958594 20.7049953 74.3758148 20.9957958 73.7262444 21.141196 72.9585703 21.141196zM79.5723783 14.7145051C79.5723783 9.7999767 78.0960819 6.71749145 74.4053408 6.71749145 71.9546887 6.71749145 70.8031775 8.11333382 70.3307626 8.69493481L70.3307626 8.14241387 69.9173996 6.74657149 65.1046732 7.41541263 65.1046732 9.10205551 66.9648067 9.3346959 66.9648067 29.1672897 65.3704065 29.4871702 65.2818288 31.1447331 72.3975776 31.1447331 72.5156813 29.4871702 70.8327034 29.1672897 70.8327034 22.885999C71.5117997 23.2640396 72.4566295 23.49668 73.490037 23.49668 79.5133265 23.49668 79.5723783 17.4771098 79.5723783 14.7145051z"/>
  </g>
</svg>
