<?xml version="1.0" encoding="utf-8"?>
<!-- Generator: Adobe Illustrator 22.0.1, SVG Export Plug-In . SVG Version: 6.00 Build 0)  -->
<svg version="1.1" id="Layer_1" xmlns="http://www.w3.org/2000/svg" xmlns:xlink="http://www.w3.org/1999/xlink" x="0px" y="0px"
	 viewBox="0 0 701.8 153.4" style="enable-background:new 0 0 701.8 153.4;" xml:space="preserve">
<style type="text/css">
	.st0{fill:#FFFFFF;}
</style>
<path class="st0" d="M134,89.7c-6-7.5-6-18.1,0-25.6l12.7-15.8c11.2-13.9,6.7-29.8-2.1-38.6c-8.8-8.8-24.7-13.3-38.6-2.1L90.2,20.2
	c-7.5,6.1-18.1,6.1-25.6,0L48.8,7.5C34.8-3.7,19,0.8,10.2,9.6C1.3,18.5-3.1,34.3,8,48.2L20.7,64c6.1,7.5,6.1,18.1,0,25.6L8,105.4
	c-11.2,13.9-6.7,29.8,2.1,38.6c5.1,5.1,12.6,8.8,20.6,8.8c5.9,0,12.1-1.9,18-6.6l15.8-12.7c7.5-6.1,18.1-6.1,25.6,0l15.8,12.7
	c13.9,11.2,29.8,6.7,38.6-2.1c8.8-8.8,13.3-24.7,2.1-38.6L134,89.7z M142.2,141.6c-2.2,2.2-5.3,3.7-8.7,3.7c-2.5,0-5.1-0.8-7.6-2.8
	L83,108.1c-3.3-2.7-7.9-2.7-11.2,0l-42.9,34.4c-5.9,4.7-12.6,2.8-16.3-0.9c-3.7-3.7-5.6-10.4-0.9-16.3l34.4-42.9
	c2.7-3.3,2.7-7.9,0-11.2L11.7,28.3C6.9,22.5,8.8,15.8,12.6,12c3.7-3.7,10.4-5.6,16.3-0.9l42.9,34.4c3.3,2.7,7.9,2.7,11.2,0
	l42.9-34.4c5.9-4.7,12.6-2.8,16.3,0.9c3.7,3.7,5.6,10.4,0.9,16.3l-34.4,42.9c-2.7,3.3-2.7,7.9,0,11.2l34.4,42.9
	C147.8,131.2,145.9,137.9,142.2,141.6z"/>
<g>
	<g>
		<path class="st0" d="M190.2,127h15.5V24.2h-15.5V127z"/>
	</g>
	<g>
		<path class="st0" d="M275.5,127H290V79.7c0-10.3-2.5-18.5-7.4-24.4c-4.9-5.9-12.6-8.9-22.8-8.9c-3.6,0-6.9,0.5-9.7,1.3
			c-3,1-5.4,2.1-7.5,3.4c-2.2,1.3-4,2.8-5.4,4.5c-1.5,1.7-2.7,3.2-3.8,4.5l-0.9,1.2l-0.6-13h-13.7c0.1,2.7,0.2,5.2,0.2,7.6V127h14.4
			V90.5c0-3.9,0.4-7.8,1.2-11.5c0.8-3.8,2.1-7.2,3.9-10.1c1.8-3,4.3-5.4,7.3-7.3c3-1.9,6.9-2.8,11.4-2.8c6,0,10.6,1.8,13.9,5.4
			c3.3,3.6,4.9,9.2,4.9,16.7V127z"/>
	</g>
	<g>
		<path class="st0" d="M303.6,32.8v68.6c0,9.6,2,16.7,5.8,21.1c3.8,4.4,10,6.7,18.2,6.7c4.7,0,8.8-0.7,12.3-2.1
			c3.3-1.4,6.6-3.6,9.7-6.6l-6.4-8.6c-1.8,1.7-3.7,3-5.6,3.8c-2,0.9-4.6,1.4-7.6,1.4c-3.8,0-6.8-1.3-8.9-3.8
			c-2.1-2.5-3.1-6.9-3.1-13.5V60.1h23.3V48.2H318V32.8H303.6z"/>
	</g>
	<path class="st0" d="M409.6,113.8c-4.4,2.3-10.1,3.5-16.9,3.5c-3.5,0-6.8-0.6-10-1.9c-3.1-1.3-5.9-3-8.4-5.2
		c-2.4-2.2-4.4-4.9-5.9-7.9c-1.5-3-2.3-6.4-2.4-10l0-0.5h63c0-5.8-0.8-11.5-2.2-16.9c-1.5-5.5-3.8-10.5-6.9-14.8
		c-3.1-4.3-7.1-7.8-11.9-10.3c-4.8-2.6-10.7-3.9-17.4-3.9c-5.8,0-11.1,1.1-15.8,3.2c-4.8,2.1-9,5.1-12.5,8.7
		c-3.5,3.7-6.2,8-8.1,13.1c-1.9,5-2.9,10.4-2.9,16.2c0,6.3,1,12.2,3,17.3c2,5.2,4.8,9.7,8.4,13.4c3.6,3.7,8,6.6,13,8.6
		c5.1,2,10.7,3.1,16.8,3.1c5,0,9.5-0.5,13.3-1.6c3.9-1.1,7.3-2.3,10.2-3.8c2.8-1.4,5.2-3,7-4.6c1.6-1.4,2.9-2.6,3.8-3.5l-8.1-8.5
		C416.7,109.5,413.6,111.6,409.6,113.8z M368.5,72.3c1.1-2.7,2.7-5.1,4.8-7.1c2.1-2.1,4.5-3.7,7.5-5c2.9-1.2,6.2-1.9,9.9-1.9
		c7.1,0,12.6,2.2,16.5,6.5c3.9,4.3,6.1,9.6,6.5,15.8h-47C366.7,77.8,367.3,75.1,368.5,72.3z"/>
	<g>
		<path class="st0" d="M439.9,127h14.4V85.5c0-3.4,0.6-6.6,1.8-9.6c1.2-3,2.8-5.6,5-8c2.1-2.3,4.6-4.1,7.5-5.3
			c2.8-1.3,6-1.9,9.4-1.9c3,0,5.5,0.3,7.5,1l3.2-13.4c-1.1-0.4-2.2-0.6-3.5-0.9c-1.4-0.2-3-0.3-4.6-0.3c-3.7,0-6.8,0.5-9.5,1.4
			c-2.7,0.9-5.2,2.1-7.3,3.5c-2.1,1.4-3.8,2.8-5.3,4.5c-1.5,1.6-2.7,3.1-3.6,4.5l-0.9,1.3l-0.6-13.9h-13.7c0.1,2.4,0.2,4.8,0.2,7.1
			V127z"/>
	</g>
	<g>
		<path class="st0" d="M552.2,127h14.4V79.7c0-10.3-2.5-18.5-7.4-24.4c-4.9-5.9-12.6-8.9-22.8-8.9c-3.6,0-6.9,0.5-9.7,1.3
			c-3,1-5.4,2.1-7.5,3.4c-2.1,1.3-4,2.8-5.4,4.5c-1.5,1.7-2.7,3.2-3.8,4.5l-0.9,1.2l-0.6-13h-13.7c0.1,2.7,0.2,5.2,0.2,7.6V127h14.4
			V90.5c0-3.9,0.4-7.8,1.2-11.5c0.8-3.8,2.1-7.2,3.9-10.1c1.8-3,4.3-5.4,7.3-7.3c3-1.9,6.9-2.8,11.4-2.8c6,0,10.7,1.8,13.9,5.4
			c3.3,3.6,4.9,9.2,4.9,16.7V127z"/>
	</g>
	<g>
		<path class="st0" d="M632.8,127h18.1l-31.4-41.9l0.2-0.3l27.2-36.6H631L611.9,75l-19.5-26.8h-18l28.3,38.1l-0.2,0.3L572.2,127
			h16.1l22-30.6L632.8,127z"/>
	</g>
	<g>
		<path class="st0" d="M654.9,32.8v68.6c0,9.6,2,16.7,5.8,21.1c3.8,4.4,10,6.7,18.2,6.7c4.7,0,8.8-0.7,12.3-2.1
			c3.3-1.4,6.6-3.6,9.7-6.6l-6.4-8.6c-1.8,1.7-3.7,3-5.6,3.8c-2,0.9-4.6,1.4-7.6,1.4c-3.8,0-6.8-1.3-8.9-3.8
			c-2.1-2.5-3.1-6.9-3.1-13.5V60.1h23.3V48.2h-23.3V32.8H654.9z"/>
	</g>
</g>
</svg>
