<?xml version="1.0" encoding="utf-8"?>
<!-- Generator: Adobe Illustrator 22.0.1, SVG Export Plug-In . SVG Version: 6.00 Build 0)  -->
<svg version="1.1" id="Layer_1" xmlns="http://www.w3.org/2000/svg" xmlns:xlink="http://www.w3.org/1999/xlink" x="0px" y="0px"
	 viewBox="0 0 1024 768" style="enable-background:new 0 0 1024 768;" xml:space="preserve">
<style type="text/css">
	.st0{fill:#FFFFFF;}
</style>
<path class="st0" d="M770.6,442.5c-27.6-34.4-27.6-82.5,0-116.9l57.7-71.9c50.9-63.5,30.7-135.8-9.7-176.1
	C778.4,37.3,706,17.1,642.6,68l-72,57.7c-34.4,27.6-82.5,27.6-116.9,0l-72-57.7C318.4,17.1,246,37.3,205.7,77.6
	c-40.3,40.3-60.5,112.6-9.6,176.1l57.7,71.9c27.6,34.4,27.6,82.5,0,116.9l-57.7,71.9c-50.9,63.5-30.7,135.8,9.6,176.1
	c23.3,23.3,57.3,39.9,94.1,39.9c26.8,0,55.2-8.8,81.9-30.3l72-57.7c34.4-27.6,82.5-27.6,116.9,0l72,57.7
	c63.5,50.9,135.7,30.7,176.1-9.6c40.3-40.3,60.6-112.6,9.7-176.1L770.6,442.5z M807.7,679.6c-9.8,9.8-24.2,16.8-39.7,16.8
	c-11.3,0-23.3-3.7-34.6-12.8L537.8,526.8c-15.1-12.1-36.1-12.1-51.2,0L291,683.7c-26.7,21.5-57.3,13-74.3-4.1
	c-17-17-25.6-47.5-4.1-74.3l156.9-195.6c12.1-15.1,12.1-36.1,0-51.2L212.6,162.9c-21.5-26.8-12.9-57.3,4.1-74.3
	c17-17,47.6-25.5,74.3-4.1l195.6,156.9c15.1,12.1,36.2,12.1,51.2,0L733.4,84.5c26.7-21.5,57.3-13,74.3,4.1c17,17,25.6,47.5,4.1,74.3
	L654.9,358.5c-12.1,15.1-12.1,36.1,0,51.2l156.9,195.6C833.3,632.1,824.7,662.6,807.7,679.6z"/>
</svg>
