<svg xmlns="http://www.w3.org/2000/svg" width="27" height="27" viewBox="0 0 27 27">
  <path fill="#EBEBEB" d="M23.5608069,15.7759366 C22.4870317,14.4376081 22.4870317,12.5662824 23.5608069,11.2279539 L25.8056196,8.43069164 C27.785879,5.96023055 27,3.14740634 25.4282421,1.5795389 C23.8642651,0.0116714697 21.0475504,-0.774207493 18.5809798,1.20605187 L15.7798271,3.45086455 C14.4414986,4.52463977 12.5701729,4.52463977 11.2318444,3.45086455 L8.43069164,1.20605187 C5.96801153,-0.774207493 3.15129683,0.0116714697 1.58342939,1.5795389 C0.0155619597,3.14740634 -0.770317003,5.96023055 1.20994236,8.43069164 L3.45475504,11.2279539 C4.52853026,12.5662824 4.52853026,14.4376081 3.45475504,15.7759366 L1.20994236,18.5731988 C-0.770317003,21.0436599 0.0155619597,23.8564841 1.58342939,25.4243516 C2.48991354,26.3308357 3.81268012,26.9766571 5.2443804,26.9766571 C6.2870317,26.9766571 7.39193084,26.6342939 8.43069164,25.7978386 L11.2318444,23.5530259 C12.5701729,22.4792507 14.4414986,22.4792507 15.7798271,23.5530259 L18.5809798,25.7978386 C21.0514409,27.778098 23.8603746,26.992219 25.4321326,25.4243516 C27,23.8564841 27.7897695,21.0436599 25.8095101,18.5731988 L23.5608069,15.7759366 Z M25.0041787,25.0002882 C24.6229107,25.3815562 24.0626801,25.6538905 23.4596542,25.6538905 C23.0200288,25.6538905 22.55317,25.5099424 22.1135447,25.1559078 L14.5037464,19.0556196 C13.9162824,18.5848703 13.0992795,18.5848703 12.5118156,19.0556196 L4.90201729,25.1597983 C3.86325648,25.9962536 2.67276657,25.665562 2.01138329,25.0002882 C1.35,24.3389049 1.01541787,23.1523055 1.8518732,22.1096542 L7.95605187,14.4998559 C8.42680115,13.9123919 8.42680115,13.095389 7.95605187,12.5079251 L1.8518732,4.8981268 C1.01541787,3.8554755 1.35,2.66887608 2.01138329,2.0074928 C2.67276657,1.34610951 3.86325648,1.01541787 4.90201729,1.84798271 L12.5118156,7.95216138 C13.0992795,8.42291066 13.9201729,8.42291066 14.5037464,7.95216138 L22.1135447,1.84798271 C23.1523055,1.01152738 24.3427954,1.34221902 25.0041787,2.0074928 C25.665562,2.66887608 26.0001441,3.8554755 25.1636888,4.8981268 L19.0595101,12.5079251 C18.5887608,13.095389 18.5887608,13.9123919 19.0595101,14.4998559 L25.1636888,22.1096542 C26.0001441,23.1523055 25.665562,24.3389049 25.0041787,25.0002882 Z"/>
</svg>
