<svg xmlns="http://www.w3.org/2000/svg" width="33" height="24" viewBox="0 0 33 24">
  <path fill="#FFF" fill-rule="evenodd" d="M211.150708,1333.25279 C212.52886,1332.83654 213.986436,1332.58709 215.500635,1332.58709 C224.444732,1332.58709 231.413944,1341.29194 231.705861,1341.66175 C232.098046,1342.15602 232.098046,1342.82809 231.705861,1343.32236 C231.554478,1343.51537 229.60771,1345.94896 226.52084,1348.24737 L221.746155,1343.58935 C221.811566,1343.23328 221.845715,1342.86666 221.845715,1342.49228 C221.845715,1339.08005 219.004499,1336.3013 215.499683,1336.3013 C215.116086,1336.3013 214.7403,1336.33464 214.375225,1336.39852 L211.150708,1333.25279 L211.150708,1333.25279 L211.150708,1333.25279 L211.150708,1333.25279 L211.150708,1333.25279 Z M205.210366,1336.21295 C201.70203,1338.65059 199.457139,1341.45592 199.294139,1341.66175 C198.901954,1342.1584 198.901954,1342.82809 199.294139,1343.32236 C199.586056,1343.69455 206.555268,1352.39821 215.500635,1352.39821 C217.365812,1352.39821 219.145021,1352.01982 220.795667,1351.41745 L217.626737,1348.32595 C216.96143,1348.55729 216.245311,1348.68325 215.499683,1348.68325 C211.994866,1348.68325 209.153651,1345.9045 209.153651,1342.49228 C209.153651,1341.76435 209.282751,1341.06577 209.519731,1340.41702 L205.210369,1336.21295 L205.210366,1336.21295 L205.210366,1336.21295 L205.210366,1336.21295 L205.210366,1336.21295 Z M204.412473,1330.18436 C204.662623,1329.94033 205.067134,1329.93929 205.310702,1330.17691 L227.754191,1352.07202 C228.00012,1352.31194 228.007395,1352.69383 227.746548,1352.9483 L226.857492,1353.81564 C226.607342,1354.05967 226.202831,1354.06071 225.959262,1353.82309 L203.515773,1331.92798 C203.269845,1331.68806 203.262569,1331.30617 203.523417,1331.0517 L204.412473,1330.18436 L204.412473,1330.18436 L204.412473,1330.18436 L204.412473,1330.18436 L204.412473,1330.18436 Z" transform="translate(-199 -1330)"/>
</svg>
