<svg xmlns="http://www.w3.org/2000/svg" width="24" height="30" viewBox="0 0 24 30">
  <path fill="#FFF" fill-rule="evenodd" d="M780.304913,1339.39794 L767.695087,1339.39794 L767.695087,1335.92773 C767.695087,1332.60085 770.517946,1329.90354 774.000316,1329.90354 C777.482054,1329.90354 780.304913,1332.60085 780.304913,1335.92773 L780.304913,1339.39794 L780.304913,1339.39794 L780.304913,1339.39794 L780.304913,1339.39794 Z M775.606055,1349.17297 L775.971255,1353.11733 C775.971255,1353.30541 775.811757,1353.45782 775.614916,1353.45782 L772.764208,1353.45782 C772.567367,1353.45782 772.407869,1353.30541 772.407869,1353.11733 L772.773069,1349.17297 C771.64709,1348.66374 770.862259,1347.57635 770.862259,1346.30632 C770.862259,1344.55065 772.352172,1343.12761 774.189562,1343.12761 C776.026952,1343.12761 777.516865,1344.55065 777.516865,1346.30632 C777.516865,1347.57635 776.732034,1348.66374 775.606055,1349.17297 L775.606055,1349.17297 L775.606055,1349.17297 L775.606055,1349.17297 L775.606055,1349.17297 Z M784.229067,1339.39794 L783.343601,1339.39794 L783.343601,1335.92773 C783.343601,1330.99698 779.160579,1327 774.000316,1327 C768.839421,1327 764.656399,1330.99698 764.656399,1335.92773 L764.656399,1339.39794 L763.7703,1339.39794 C762.79116,1339.39794 762,1340.15392 762,1341.08951 L762,1355.30723 C762,1356.24161 762.79116,1357 763.7703,1357 L784.229067,1357 C785.206941,1357 786,1356.24161 786,1355.30723 L786,1341.08951 C786,1340.15392 785.206941,1339.39794 784.229067,1339.39794 L784.229067,1339.39794 L784.229067,1339.39794 L784.229067,1339.39794 L784.229067,1339.39794 Z" transform="translate(-762 -1327)"/>
</svg>
