<svg xmlns="http://www.w3.org/2000/svg" width="29" height="20" viewBox="0 0 29 20">
  <path fill="#FFF" fill-rule="evenodd" d="M215.263064,3568.81557 L215.246654,3569.77201 C215.246654,3569.77201 214.865479,3569.99745 213.304973,3570.63143 L213.921865,3570.87802 C215.868767,3571.65135 217.406148,3572.26271 218.115536,3573.33224 C218.487014,3573.89327 218.724223,3575.07004 218.869681,3576.12424 L224.972841,3576.12424 C225.597041,3576.12424 226.060522,3575.63535 225.993565,3575.02326 C225.993565,3575.02326 225.909111,3573.39352 225.442153,3572.68731 C224.920742,3571.90158 223.503457,3571.41205 221.769894,3570.71314 C220.03633,3570.01569 219.625318,3569.77201 219.625318,3569.77201 L219.608907,3568.81557 C219.608907,3568.81557 220.25862,3568.33333 220.460024,3566.81951 C220.866561,3566.93332 221.292492,3566.23222 221.315617,3565.86452 C221.337995,3565.5085 221.259671,3564.52214 220.764367,3564.62282 C220.865069,3563.88159 220.938171,3563.21259 220.903858,3562.85876 C220.774065,3561.56745 220.051995,3559.87634 217.435986,3559.87634 C214.819976,3559.87634 214.097907,3561.56745 213.969605,3562.85876 C213.9338,3563.21259 214.006902,3563.88159 214.107604,3564.62282 C213.6123,3564.52214 213.533977,3565.5085 213.556355,3565.86452 C213.579479,3566.23222 214.00541,3566.93332 214.411947,3566.81951 C214.613351,3568.33333 215.263064,3568.81557 215.263064,3568.81557 L215.263064,3568.81557 L215.263064,3568.81557 L215.263064,3568.81557 Z M212.906119,3571.3399 C210.771987,3570.48121 210.26624,3570.18137 210.26624,3570.18137 L210.2461,3569.00387 C210.2461,3569.00387 211.045747,3568.41074 211.293399,3566.54673 C211.793924,3566.68753 212.318319,3565.82374 212.346665,3565.37142 C212.375011,3564.93295 212.278039,3563.71898 211.66786,3563.84227 C211.792432,3562.93033 211.882691,3562.10739 211.839426,3561.67112 C211.679795,3560.08215 210.790635,3558 207.571161,3558 C204.351686,3558 203.462527,3560.08215 203.304388,3561.67112 C203.260377,3562.10739 203.34989,3562.93033 203.474462,3563.84227 C202.864283,3563.71898 202.768057,3564.93295 202.795657,3565.37142 C202.824003,3565.82374 203.348398,3566.68753 203.848923,3566.54673 C204.097321,3568.41074 204.896222,3569.00387 204.896222,3569.00387 L204.876082,3570.18137 C204.876082,3570.18137 204.370335,3570.48121 202.236202,3571.3399 C200.10207,3572.20004 198.358063,3572.80266 197.716555,3573.77004 C197.141436,3574.63894 197.004641,3576.93029 197.004641,3576.93029 C196.948772,3577.52108 197.403698,3578 198.024948,3578 L207.571161,3578 L217.118042,3578 C217.737454,3578 218.197605,3577.50669 218.135978,3576.91056 C218.135978,3576.91056 218.000886,3574.63894 217.425766,3573.77004 C216.784258,3572.80266 215.040252,3572.20004 212.906119,3571.3399 L212.906119,3571.3399 L212.906119,3571.3399 L212.906119,3571.3399 Z" transform="translate(-197 -3558)"/>
</svg>
